<svg width="458.8" height="74.001" viewBox="0 0 428.8 124.001" xmlns="http://www.w3.org/2000/svg"><g id="svgGroup" stroke-linecap="round" fill-rule="evenodd" font-size="9pt" stroke="#fff" stroke-width="0.25mm" fill="white" style="stroke:#fff;stroke-width:0.25mm;fill:white"><path d="M 0 52.1 L 0 20.8 L 8.8 20.8 L 8.8 50.4 A 36.869 36.869 0 0 0 9.022 54.584 Q 9.555 59.242 11.375 62.064 A 10.621 10.621 0 0 0 11.6 62.4 Q 14.4 66.4 19.9 66.4 Q 23.5 66.4 26.85 64.85 A 19.094 19.094 0 0 0 32.345 60.975 A 22.043 22.043 0 0 0 32.9 60.4 A 20.299 20.299 0 0 0 36.707 54.483 A 23.555 23.555 0 0 0 37.1 53.5 L 37.1 20.8 L 45.9 20.8 L 45.9 63 Q 45.9 64.6 46.55 65.35 Q 47.2 66.1 48.7 66.2 L 48.7 73 Q 47.2 73.2 46.35 73.25 A 28.445 28.445 0 0 1 44.901 73.299 A 25.903 25.903 0 0 1 44.7 73.3 A 6.72 6.72 0 0 1 42.142 72.823 A 6.298 6.298 0 0 1 40.4 71.75 Q 38.6 70.2 38.5 67.9 L 38.3 61.8 Q 34.9 67.6 29.15 70.8 Q 23.4 74 16.6 74 A 19.242 19.242 0 0 1 11.542 73.374 A 13.336 13.336 0 0 1 4.2 68.45 Q 0 62.9 0 52.1 Z M 131.9 41.8 L 131.9 73 L 123.1 73 L 123.1 43.8 A 42.951 42.951 0 0 0 122.904 39.538 Q 122.393 34.432 120.55 31.65 A 8.279 8.279 0 0 0 114.51 27.914 A 12.372 12.372 0 0 0 112.8 27.8 A 15.16 15.16 0 0 0 107.095 28.943 A 18.395 18.395 0 0 0 105.65 29.6 Q 102.1 31.4 99.35 34.45 Q 96.6 37.5 95.4 41.5 L 95.4 73 L 86.6 73 L 86.6 20.8 L 94.6 20.8 L 94.6 32 Q 96.7 28.3 100 25.6 Q 103.3 22.9 107.5 21.4 Q 111.7 19.9 116.3 19.9 A 20.389 20.389 0 0 1 119.595 20.152 Q 121.449 20.456 122.981 21.126 A 11.6 11.6 0 0 1 123.85 21.55 Q 126.9 23.2 128.65 26.15 A 19.069 19.069 0 0 1 130.376 30.023 A 24.888 24.888 0 0 1 131.15 33.1 A 43.542 43.542 0 0 1 131.793 38.339 A 54.141 54.141 0 0 1 131.9 41.8 Z M 301 41.8 L 301 73 L 292.2 73 L 292.2 43.8 A 42.951 42.951 0 0 0 292.004 39.538 Q 291.493 34.432 289.65 31.65 A 8.279 8.279 0 0 0 283.61 27.914 A 12.372 12.372 0 0 0 281.9 27.8 A 15.16 15.16 0 0 0 276.195 28.943 A 18.395 18.395 0 0 0 274.75 29.6 Q 271.2 31.4 268.45 34.45 Q 265.7 37.5 264.5 41.5 L 264.5 73 L 255.7 73 L 255.7 20.8 L 263.7 20.8 L 263.7 32 Q 265.8 28.3 269.1 25.6 Q 272.4 22.9 276.6 21.4 Q 280.8 19.9 285.4 19.9 A 20.389 20.389 0 0 1 288.695 20.152 Q 290.549 20.456 292.081 21.126 A 11.6 11.6 0 0 1 292.95 21.55 Q 296 23.2 297.75 26.15 A 19.069 19.069 0 0 1 299.476 30.023 A 24.888 24.888 0 0 1 300.25 33.1 A 43.542 43.542 0 0 1 300.893 38.339 A 54.141 54.141 0 0 1 301 41.8 Z M 447.2 31.2 L 447.2 0 L 456 0 L 456 63 Q 456 64.6 456.65 65.35 Q 457.3 66.1 458.8 66.2 L 458.8 73 Q 456.74 73.33 455.427 73.388 A 11.972 11.972 0 0 1 454.9 73.4 Q 452.3 73.4 450.35 71.6 A 6.994 6.994 0 0 1 449.21 70.27 A 4.829 4.829 0 0 1 448.4 67.6 L 448.4 63.2 Q 445.3 68.2 440.1 71.1 A 22.479 22.479 0 0 1 432.419 73.771 A 21.182 21.182 0 0 1 429.3 74 A 23.706 23.706 0 0 1 421.977 72.889 A 21.839 21.839 0 0 1 419.35 71.85 Q 414.8 69.7 411.45 65.9 Q 408.1 62.1 406.25 57.25 Q 404.4 52.4 404.4 47 A 31.211 31.211 0 0 1 405.842 37.416 A 28.489 28.489 0 0 1 407.45 33.45 A 25.871 25.871 0 0 1 413.848 25.139 A 25.007 25.007 0 0 1 415.85 23.6 A 20.914 20.914 0 0 1 427.617 19.905 A 25.435 25.435 0 0 1 428.1 19.9 A 20.505 20.505 0 0 1 436.485 21.605 A 19.872 19.872 0 0 1 439.4 23.2 Q 444.4 26.5 447.2 31.2 Z M 245.7 49.9 L 202.4 49.9 A 21.179 21.179 0 0 0 203.598 55.551 A 18.491 18.491 0 0 0 205.25 58.95 Q 207.7 62.9 211.6 65.15 Q 215.5 67.4 220 67.4 Q 224.8 67.4 229.05 65 A 15.097 15.097 0 0 0 232.238 62.637 A 11.719 11.719 0 0 0 234.9 58.7 L 242.5 60.8 A 19.801 19.801 0 0 1 238.262 66.837 A 23.175 23.175 0 0 1 237.45 67.6 A 24.217 24.217 0 0 1 230.703 71.84 A 28.073 28.073 0 0 1 229.55 72.3 A 27.205 27.205 0 0 1 221.661 73.94 A 31.8 31.8 0 0 1 219.7 74 A 28.055 28.055 0 0 1 212.9 73.202 A 24.093 24.093 0 0 1 208.95 71.85 Q 204.1 69.7 200.55 65.95 Q 197 62.2 195.05 57.3 Q 193.1 52.4 193.1 46.9 Q 193.1 39.5 196.5 33.4 Q 199.9 27.3 205.95 23.6 A 25.311 25.311 0 0 1 217.288 20 A 31.188 31.188 0 0 1 219.8 19.9 Q 227.7 19.9 233.55 23.65 Q 239.4 27.4 242.65 33.45 Q 245.9 39.5 245.9 46.5 Q 245.9 47.5 245.85 48.45 Q 245.809 49.233 245.734 49.71 A 4.696 4.696 0 0 1 245.7 49.9 Z M 397.8 49.9 L 354.5 49.9 A 21.179 21.179 0 0 0 355.698 55.551 A 18.491 18.491 0 0 0 357.35 58.95 Q 359.8 62.9 363.7 65.15 Q 367.6 67.4 372.1 67.4 Q 376.9 67.4 381.15 65 A 15.097 15.097 0 0 0 384.338 62.637 A 11.719 11.719 0 0 0 387 58.7 L 394.6 60.8 A 19.801 19.801 0 0 1 390.362 66.837 A 23.175 23.175 0 0 1 389.55 67.6 A 24.217 24.217 0 0 1 382.803 71.84 A 28.073 28.073 0 0 1 381.65 72.3 A 27.205 27.205 0 0 1 373.761 73.94 A 31.8 31.8 0 0 1 371.8 74 A 28.055 28.055 0 0 1 365 73.202 A 24.093 24.093 0 0 1 361.05 71.85 Q 356.2 69.7 352.65 65.95 Q 349.1 62.2 347.15 57.3 Q 345.2 52.4 345.2 46.9 Q 345.2 39.5 348.6 33.4 Q 352 27.3 358.05 23.6 A 25.311 25.311 0 0 1 369.388 20 A 31.188 31.188 0 0 1 371.9 19.9 Q 379.8 19.9 385.65 23.65 Q 391.5 27.4 394.75 33.45 Q 398 39.5 398 46.5 Q 398 47.5 397.95 48.45 Q 397.909 49.233 397.834 49.71 A 4.696 4.696 0 0 1 397.8 49.9 Z M 169.1 73 L 159.5 73 L 139 20.8 L 148.2 20.8 L 164.6 64.6 L 181 20.8 L 189.6 20.8 L 169.1 73 Z M 339.1 63.4 L 341.2 70.4 A 64.849 64.849 0 0 1 340.6 70.669 Q 339.93 70.965 339.047 71.341 A 215.503 215.503 0 0 1 338.2 71.7 Q 336.36 72.475 333.956 73.062 A 39.14 39.14 0 0 1 333.8 73.1 A 22.097 22.097 0 0 1 329.545 73.679 A 25.368 25.368 0 0 1 328.5 73.7 A 15.562 15.562 0 0 1 324.381 73.169 A 13.87 13.87 0 0 1 322.6 72.55 Q 319.9 71.4 318.3 68.95 A 9.444 9.444 0 0 1 317.012 65.823 Q 316.7 64.433 316.7 62.8 L 316.7 27.7 L 309.6 27.7 L 309.6 20.8 L 316.7 20.8 L 316.7 3.4 L 325.5 3.4 L 325.5 20.8 L 337.2 20.8 L 337.2 27.7 L 325.5 27.7 L 325.5 60.1 A 7.853 7.853 0 0 0 325.792 61.777 Q 326.108 62.84 326.737 63.601 A 4.457 4.457 0 0 0 327.4 64.25 Q 329.1 65.6 331.4 65.6 Q 334 65.6 336.2 64.7 Q 338.098 63.924 338.88 63.519 A 6.067 6.067 0 0 0 339.1 63.4 Z M 71 73 L 62 73 L 62 2 L 71 2 L 71 73 Z M 447.2 54.7 L 447.2 39.7 A 16.462 16.462 0 0 0 443.713 33.984 A 19.132 19.132 0 0 0 443.3 33.55 Q 440.6 30.8 437.25 29.15 A 16.415 16.415 0 0 0 433.601 27.839 A 13.633 13.633 0 0 0 430.6 27.5 A 15.89 15.89 0 0 0 426.126 28.113 A 13.984 13.984 0 0 0 423.55 29.15 Q 420.4 30.8 418.15 33.55 Q 415.9 36.3 414.7 39.8 Q 413.5 43.3 413.5 47.1 Q 413.5 51 414.85 54.5 Q 416.2 58 418.65 60.7 Q 421.1 63.4 424.35 64.9 A 16.531 16.531 0 0 0 431.045 66.397 A 19.06 19.06 0 0 0 431.4 66.4 A 14.073 14.073 0 0 0 434.889 65.945 A 17.1 17.1 0 0 0 436.35 65.5 Q 438.9 64.6 441.2 63 Q 443.5 61.4 445.1 59.25 A 12.096 12.096 0 0 0 446.72 56.339 A 10.73 10.73 0 0 0 447.2 54.7 Z M 202.1 43.8 L 237.7 43.8 A 20.552 20.552 0 0 0 236.511 38.235 A 17.838 17.838 0 0 0 234.8 34.8 Q 232.3 30.9 228.4 28.7 Q 224.5 26.5 219.8 26.5 Q 215.2 26.5 211.3 28.7 Q 207.4 30.9 204.95 34.8 A 18.798 18.798 0 0 0 202.373 41.626 A 22.98 22.98 0 0 0 202.1 43.8 Z M 354.2 43.8 L 389.8 43.8 A 20.552 20.552 0 0 0 388.611 38.235 A 17.838 17.838 0 0 0 386.9 34.8 Q 384.4 30.9 380.5 28.7 Q 376.6 26.5 371.9 26.5 Q 367.3 26.5 363.4 28.7 Q 359.5 30.9 357.05 34.8 A 18.798 18.798 0 0 0 354.473 41.626 A 22.98 22.98 0 0 0 354.2 43.8 Z" vector-effect="non-scaling-stroke"/></g></svg>